<?xml version="1.0" encoding="utf-8"?><svg width="auto" height="3870" style="overflow:visible " version="1.1" xmlns="http://www.w3.org/2000/svg"><rect x="20" y="20" width="200" height="40" style="fill:white;stroke:black;stroke-width:1" /><text x="30" y="30" font-size="10" style="fill:blue">circuitos</text><rect x="240" y="20" width="200" height="40" style="fill:white;stroke:black;stroke-width:1" /><text x="250" y="30" font-size="10" style="fill:blue">circuito</text><path d="M220 40 C240 40 220 40 240 40" style="fill:transparent;stroke:black" /><rect x="460" y="20" width="200" height="40" style="fill:white;stroke:black;stroke-width:1" /><text x="470" y="30" font-size="10" style="fill:blue">nombre</text><path d="M440 40 C460 40 440 40 460 40" style="fill:transparent;stroke:black" /><rect x="526" y="20" width="137" height="40" style="fill:green;stroke:black;stroke-width:1" /><text x="536" y="30" font-size="8" style="fill:white">Albert Park</text><rect x="460" y="70" width="200" height="40" style="fill:white;stroke:black;stroke-width:1" /><text x="470" y="80" font-size="10" style="fill:blue">longitud</text><path d="M440 40 C460 40 440 90 460 90" style="fill:transparent;stroke:black" /><text x="470" y="90" font-size="8" style="fill:black">kilometros: 5,303</text><rect x="460" y="120" width="200" height="40" style="fill:white;stroke:black;stroke-width:1" /><text x="470" y="130" font-size="10" style="fill:blue">anchura</text><path d="M440 40 C460 40 440 140 460 140" style="fill:transparent;stroke:black" /><text x="470" y="140" font-size="8" style="fill:black">metros: 15</text><rect x="460" y="170" width="200" height="40" style="fill:white;stroke:black;stroke-width:1" /><text x="470" y="180" font-size="10" style="fill:blue">fecha</text><path d="M440 40 C460 40 440 190 460 190" style="fill:transparent;stroke:black" /><rect x="526" y="170" width="137" height="40" style="fill:green;stroke:black;stroke-width:1" /><text x="536" y="180" font-size="8" style="fill:white">24/03/2024</text><rect x="460" y="220" width="200" height="40" style="fill:white;stroke:black;stroke-width:1" /><text x="470" y="230" font-size="10" style="fill:blue">hora</text><path d="M440 40 C460 40 440 240 460 240" style="fill:transparent;stroke:black" /><rect x="526" y="220" width="137" height="40" style="fill:green;stroke:black;stroke-width:1" /><text x="536" y="230" font-size="8" style="fill:white">4:30</text><rect x="460" y="270" width="200" height="40" style="fill:white;stroke:black;stroke-width:1" /><text x="470" y="280" font-size="10" style="fill:blue">vueltas</text><path d="M440 40 C460 40 440 290 460 290" style="fill:transparent;stroke:black" /><rect x="526" y="270" width="137" height="40" style="fill:green;stroke:black;stroke-width:1" /><text x="536" y="280" font-size="8" style="fill:white">58</text><rect x="460" y="320" width="200" height="40" style="fill:white;stroke:black;stroke-width:1" /><text x="470" y="330" font-size="10" style="fill:blue">localidad</text><path d="M440 40 C460 40 440 340 460 340" style="fill:transparent;stroke:black" /><rect x="526" y="320" width="137" height="40" style="fill:green;stroke:black;stroke-width:1" /><text x="536" y="330" font-size="8" style="fill:white">Melbourne</text><rect x="460" y="370" width="200" height="40" style="fill:white;stroke:black;stroke-width:1" /><text x="470" y="380" font-size="10" style="fill:blue">pais</text><path d="M440 40 C460 40 440 390 460 390" style="fill:transparent;stroke:black" /><rect x="526" y="370" width="137" height="40" style="fill:green;stroke:black;stroke-width:1" /><text x="536" y="380" font-size="8" style="fill:white">Australia</text><rect x="460" y="420" width="200" height="40" style="fill:white;stroke:black;stroke-width:1" /><text x="470" y="430" font-size="10" style="fill:blue">fuente</text><path d="M440 40 C460 40 440 440 460 440" style="fill:transparent;stroke:black" /><rect x="526" y="420" width="137" height="40" style="fill:green;stroke:black;stroke-width:1" /><text x="536" y="430" font-size="8" style="fill:white">https://www.motorpasion.com/formula1/analisis-tecnico-del-circuito-de-albert-park-melbourne</text><rect x="460" y="470" width="200" height="40" style="fill:white;stroke:black;stroke-width:1" /><text x="470" y="480" font-size="10" style="fill:blue">fuente</text><path d="M440 40 C460 40 440 490 460 490" style="fill:transparent;stroke:black" /><rect x="526" y="470" width="137" height="40" style="fill:green;stroke:black;stroke-width:1" /><text x="536" y="480" font-size="8" style="fill:white">https://es.wikipedia.org/wiki/Circuito_de_Albert_Park</text><rect x="460" y="520" width="200" height="40" style="fill:white;stroke:black;stroke-width:1" /><text x="470" y="530" font-size="10" style="fill:blue">fuente</text><path d="M440 40 C460 40 440 540 460 540" style="fill:transparent;stroke:black" /><rect x="526" y="520" width="137" height="40" style="fill:green;stroke:black;stroke-width:1" /><text x="536" y="530" font-size="8" style="fill:white">https://www.redbull.com/es-es/plano-del-trazado-de-albert-park-melbourne</text><rect x="460" y="570" width="200" height="40" style="fill:white;stroke:black;stroke-width:1" /><text x="470" y="580" font-size="10" style="fill:blue">fuente</text><path d="M440 40 C460 40 440 590 460 590" style="fill:transparent;stroke:black" /><rect x="526" y="570" width="137" height="40" style="fill:green;stroke:black;stroke-width:1" /><text x="536" y="580" font-size="8" style="fill:white">https://www.formula1.com/en/racing/2024/australia</text><rect x="460" y="620" width="200" height="40" style="fill:white;stroke:black;stroke-width:1" /><text x="470" y="630" font-size="10" style="fill:blue">fuente</text><path d="M440 40 C460 40 440 640 460 640" style="fill:transparent;stroke:black" /><rect x="526" y="620" width="137" height="40" style="fill:green;stroke:black;stroke-width:1" /><text x="536" y="630" font-size="8" style="fill:white">https://www.dazn.com/es-ES/news/motor/circuito-de-albert-park-donde-esta-como-es-caracteristicas-como-llegar-y-fotos-del-escenario-del-gp-de-australia-del-mundial-de-f1/l72phjxopbx61bsz5jkudezvy</text><rect x="460" y="670" width="200" height="40" style="fill:white;stroke:black;stroke-width:1" /><text x="470" y="680" font-size="10" style="fill:blue">fotografia</text><path d="M440 40 C460 40 440 690 460 690" style="fill:transparent;stroke:black" /><rect x="526" y="670" width="137" height="40" style="fill:green;stroke:black;stroke-width:1" /><text x="536" y="680" font-size="8" style="fill:white">AlbertPark.jpg</text><rect x="460" y="720" width="200" height="40" style="fill:white;stroke:black;stroke-width:1" /><text x="470" y="730" font-size="10" style="fill:blue">fotografia</text><path d="M440 40 C460 40 440 740 460 740" style="fill:transparent;stroke:black" /><rect x="526" y="720" width="137" height="40" style="fill:green;stroke:black;stroke-width:1" /><text x="536" y="730" font-size="8" style="fill:white">AlbertParkEsquematizado.png</text><rect x="460" y="770" width="200" height="40" style="fill:white;stroke:black;stroke-width:1" /><text x="470" y="780" font-size="10" style="fill:blue">fotografia</text><path d="M440 40 C460 40 440 790 460 790" style="fill:transparent;stroke:black" /><rect x="526" y="770" width="137" height="40" style="fill:green;stroke:black;stroke-width:1" /><text x="536" y="780" font-size="8" style="fill:white">AlbertParkArriba.jpg</text><rect x="460" y="820" width="200" height="40" style="fill:white;stroke:black;stroke-width:1" /><text x="470" y="830" font-size="10" style="fill:blue">video</text><path d="M440 40 C460 40 440 840 460 840" style="fill:transparent;stroke:black" /><rect x="526" y="820" width="137" height="40" style="fill:green;stroke:black;stroke-width:1" /><text x="536" y="830" font-size="8" style="fill:white">AlbertPark.mp4</text><rect x="460" y="870" width="200" height="40" style="fill:white;stroke:black;stroke-width:1" /><text x="470" y="880" font-size="10" style="fill:blue">coordenadas</text><path d="M440 40 C460 40 440 890 460 890" style="fill:transparent;stroke:black" /><text x="470" y="890" font-size="8" style="fill:black">latitud: -37,8500761</text><text x="470" y="900" font-size="8" style="fill:black">longitud: 144,9689996</text><text x="470" y="910" font-size="8" style="fill:black">altitud: 4,898</text><rect x="460" y="920" width="200" height="40" style="fill:white;stroke:black;stroke-width:1" /><text x="470" y="930" font-size="10" style="fill:blue">punto</text><path d="M440 40 C460 40 440 940 460 940" style="fill:transparent;stroke:black" /><text x="470" y="940" font-size="8" style="fill:black">numero: 1</text><rect x="680" y="920" width="200" height="40" style="fill:white;stroke:black;stroke-width:1" /><text x="690" y="930" font-size="10" style="fill:blue">distancia</text><path d="M660 940 C680 940 660 940 680 940" style="fill:transparent;stroke:black" /><text x="690" y="940" font-size="8" style="fill:black">metros: 381,11</text><rect x="680" y="970" width="200" height="40" style="fill:white;stroke:black;stroke-width:1" /><text x="690" y="980" font-size="10" style="fill:blue">coordenadas</text><path d="M660 940 C680 940 660 990 680 990" style="fill:transparent;stroke:black" /><text x="690" y="990" font-size="8" style="fill:black">latitud: -37,8475972</text><text x="690" y="1000" font-size="8" style="fill:black">longitud: 144,9660005</text><text x="690" y="1010" font-size="8" style="fill:black">altitud: 4,125895</text><rect x="460" y="1070" width="200" height="40" style="fill:white;stroke:black;stroke-width:1" /><text x="470" y="1080" font-size="10" style="fill:blue">punto</text><path d="M440 40 C460 40 440 1090 460 1090" style="fill:transparent;stroke:black" /><text x="470" y="1090" font-size="8" style="fill:black">numero: 1</text><rect x="680" y="1070" width="200" height="40" style="fill:white;stroke:black;stroke-width:1" /><text x="690" y="1080" font-size="10" style="fill:blue">distancia</text><path d="M660 1090 C680 1090 660 1090 680 1090" style="fill:transparent;stroke:black" /><text x="690" y="1090" font-size="8" style="fill:black">metros: 9,32</text><rect x="680" y="1120" width="200" height="40" style="fill:white;stroke:black;stroke-width:1" /><text x="690" y="1130" font-size="10" style="fill:blue">coordenadas</text><path d="M660 1090 C680 1090 660 1140 680 1140" style="fill:transparent;stroke:black" /><text x="690" y="1140" font-size="8" style="fill:black">latitud: -37,8467394</text><text x="690" y="1150" font-size="8" style="fill:black">longitud: 144,9662229</text><text x="690" y="1160" font-size="8" style="fill:black">altitud: 4,428</text><rect x="460" y="1220" width="200" height="40" style="fill:white;stroke:black;stroke-width:1" /><text x="470" y="1230" font-size="10" style="fill:blue">punto</text><path d="M440 40 C460 40 440 1240 460 1240" style="fill:transparent;stroke:black" /><text x="470" y="1240" font-size="8" style="fill:black">numero: 1</text><rect x="680" y="1220" width="200" height="40" style="fill:white;stroke:black;stroke-width:1" /><text x="690" y="1230" font-size="10" style="fill:blue">distancia</text><path d="M660 1240 C680 1240 660 1240 680 1240" style="fill:transparent;stroke:black" /><text x="690" y="1240" font-size="8" style="fill:black">metros: 616,81</text><rect x="680" y="1270" width="200" height="40" style="fill:white;stroke:black;stroke-width:1" /><text x="690" y="1280" font-size="10" style="fill:blue">coordenadas</text><path d="M660 1240 C680 1240 660 1290 680 1290" style="fill:transparent;stroke:black" /><text x="690" y="1290" font-size="8" style="fill:black">latitud: -37,8422066</text><text x="690" y="1300" font-size="8" style="fill:black">longitud: 144,9621462</text><text x="690" y="1310" font-size="8" style="fill:black">altitud: 4,6803</text><rect x="460" y="1370" width="200" height="40" style="fill:white;stroke:black;stroke-width:1" /><text x="470" y="1380" font-size="10" style="fill:blue">punto</text><path d="M440 40 C460 40 440 1390 460 1390" style="fill:transparent;stroke:black" /><text x="470" y="1390" font-size="8" style="fill:black">numero: 1</text><rect x="680" y="1370" width="200" height="40" style="fill:white;stroke:black;stroke-width:1" /><text x="690" y="1380" font-size="10" style="fill:blue">distancia</text><path d="M660 1390 C680 1390 660 1390 680 1390" style="fill:transparent;stroke:black" /><text x="690" y="1390" font-size="8" style="fill:black">metros: 146,46</text><rect x="680" y="1420" width="200" height="40" style="fill:white;stroke:black;stroke-width:1" /><text x="690" y="1430" font-size="10" style="fill:blue">coordenadas</text><path d="M660 1390 C680 1390 660 1440 680 1440" style="fill:transparent;stroke:black" /><text x="690" y="1440" font-size="8" style="fill:black">latitud: -37,8417953</text><text x="690" y="1450" font-size="8" style="fill:black">longitud: 144,9637148</text><text x="690" y="1460" font-size="8" style="fill:black">altitud: 4.686</text><rect x="460" y="1520" width="200" height="40" style="fill:white;stroke:black;stroke-width:1" /><text x="470" y="1530" font-size="10" style="fill:blue">punto</text><path d="M440 40 C460 40 440 1540 460 1540" style="fill:transparent;stroke:black" /><text x="470" y="1540" font-size="8" style="fill:black">numero: 1</text><rect x="680" y="1520" width="200" height="40" style="fill:white;stroke:black;stroke-width:1" /><text x="690" y="1530" font-size="10" style="fill:blue">distancia</text><path d="M660 1540 C680 1540 660 1540 680 1540" style="fill:transparent;stroke:black" /><text x="690" y="1540" font-size="8" style="fill:black">metros: 217,93</text><rect x="680" y="1570" width="200" height="40" style="fill:white;stroke:black;stroke-width:1" /><text x="690" y="1580" font-size="10" style="fill:blue">coordenadas</text><path d="M660 1540 C680 1540 660 1590 680 1590" style="fill:transparent;stroke:black" /><text x="690" y="1590" font-size="8" style="fill:black">latitud: -37,8398564</text><text x="690" y="1600" font-size="8" style="fill:black">longitud: 144,9637168</text><text x="690" y="1610" font-size="8" style="fill:black">altitud: 5,5496</text><rect x="460" y="1670" width="200" height="40" style="fill:white;stroke:black;stroke-width:1" /><text x="470" y="1680" font-size="10" style="fill:blue">punto</text><path d="M440 40 C460 40 440 1690 460 1690" style="fill:transparent;stroke:black" /><text x="470" y="1690" font-size="8" style="fill:black">numero: 2</text><rect x="680" y="1670" width="200" height="40" style="fill:white;stroke:black;stroke-width:1" /><text x="690" y="1680" font-size="10" style="fill:blue">distancia</text><path d="M660 1690 C680 1690 660 1690 680 1690" style="fill:transparent;stroke:black" /><text x="690" y="1690" font-size="8" style="fill:black">metros: 422,26</text><rect x="680" y="1720" width="200" height="40" style="fill:white;stroke:black;stroke-width:1" /><text x="690" y="1730" font-size="10" style="fill:blue">coordenadas</text><path d="M660 1690 C680 1690 660 1740 680 1740" style="fill:transparent;stroke:black" /><text x="690" y="1740" font-size="8" style="fill:black">latitud: -37,8380550</text><text x="690" y="1750" font-size="8" style="fill:black">longitud: 144,9678925</text><text x="690" y="1760" font-size="8" style="fill:black">altitud: 4,54748</text><rect x="460" y="1820" width="200" height="40" style="fill:white;stroke:black;stroke-width:1" /><text x="470" y="1830" font-size="10" style="fill:blue">punto</text><path d="M440 40 C460 40 440 1840 460 1840" style="fill:transparent;stroke:black" /><text x="470" y="1840" font-size="8" style="fill:black">numero: 2</text><rect x="680" y="1820" width="200" height="40" style="fill:white;stroke:black;stroke-width:1" /><text x="690" y="1830" font-size="10" style="fill:blue">distancia</text><path d="M660 1840 C680 1840 660 1840 680 1840" style="fill:transparent;stroke:black" /><text x="690" y="1840" font-size="8" style="fill:black">metros: 138,73</text><rect x="680" y="1870" width="200" height="40" style="fill:white;stroke:black;stroke-width:1" /><text x="690" y="1880" font-size="10" style="fill:blue">coordenadas</text><path d="M660 1840 C680 1840 660 1890 680 1890" style="fill:transparent;stroke:black" /><text x="690" y="1890" font-size="8" style="fill:black">latitud: -37,8384531</text><text x="690" y="1900" font-size="8" style="fill:black">longitud: 144,9693757</text><text x="690" y="1910" font-size="8" style="fill:black">altitud: 1,04765</text><rect x="460" y="1970" width="200" height="40" style="fill:white;stroke:black;stroke-width:1" /><text x="470" y="1980" font-size="10" style="fill:blue">punto</text><path d="M440 40 C460 40 440 1990 460 1990" style="fill:transparent;stroke:black" /><text x="470" y="1990" font-size="8" style="fill:black">numero: 2</text><rect x="680" y="1970" width="200" height="40" style="fill:white;stroke:black;stroke-width:1" /><text x="690" y="1980" font-size="10" style="fill:blue">distancia</text><path d="M660 1990 C680 1990 660 1990 680 1990" style="fill:transparent;stroke:black" /><text x="690" y="1990" font-size="8" style="fill:black">metros: 216,68</text><rect x="680" y="2020" width="200" height="40" style="fill:white;stroke:black;stroke-width:1" /><text x="690" y="2030" font-size="10" style="fill:blue">coordenadas</text><path d="M660 1990 C680 1990 660 2040 680 2040" style="fill:transparent;stroke:black" /><text x="690" y="2040" font-size="8" style="fill:black">latitud: -37,8396853</text><text x="690" y="2050" font-size="8" style="fill:black">longitud: 144,9713322</text><text x="690" y="2060" font-size="8" style="fill:black">altitud: 0,610757</text><rect x="460" y="2120" width="200" height="40" style="fill:white;stroke:black;stroke-width:1" /><text x="470" y="2130" font-size="10" style="fill:blue">punto</text><path d="M440 40 C460 40 440 2140 460 2140" style="fill:transparent;stroke:black" /><text x="470" y="2140" font-size="8" style="fill:black">numero: 2</text><rect x="680" y="2120" width="200" height="40" style="fill:white;stroke:black;stroke-width:1" /><text x="690" y="2130" font-size="10" style="fill:blue">distancia</text><path d="M660 2140 C680 2140 660 2140 680 2140" style="fill:transparent;stroke:black" /><text x="690" y="2140" font-size="8" style="fill:black">metros: 220,43</text><rect x="680" y="2170" width="200" height="40" style="fill:white;stroke:black;stroke-width:1" /><text x="690" y="2180" font-size="10" style="fill:blue">coordenadas</text><path d="M660 2140 C680 2140 660 2190 680 2190" style="fill:transparent;stroke:black" /><text x="690" y="2190" font-size="8" style="fill:black">latitud: -37,8416460</text><text x="690" y="2200" font-size="8" style="fill:black">longitud: 144,9717477</text><text x="690" y="2210" font-size="8" style="fill:black">altitud: 5,3557002</text><rect x="460" y="2270" width="200" height="40" style="fill:white;stroke:black;stroke-width:1" /><text x="470" y="2280" font-size="10" style="fill:blue">punto</text><path d="M440 40 C460 40 440 2290 460 2290" style="fill:transparent;stroke:black" /><text x="470" y="2290" font-size="8" style="fill:black">numero: 2</text><rect x="680" y="2270" width="200" height="40" style="fill:white;stroke:black;stroke-width:1" /><text x="690" y="2280" font-size="10" style="fill:blue">distancia</text><path d="M660 2290 C680 2290 660 2290 680 2290" style="fill:transparent;stroke:black" /><text x="690" y="2290" font-size="8" style="fill:black">metros: 343,87</text><rect x="680" y="2320" width="200" height="40" style="fill:white;stroke:black;stroke-width:1" /><text x="690" y="2330" font-size="10" style="fill:blue">coordenadas</text><path d="M660 2290 C680 2290 660 2340 680 2340" style="fill:transparent;stroke:black" /><text x="690" y="2340" font-size="8" style="fill:black">latitud: -37,8445734</text><text x="690" y="2350" font-size="8" style="fill:black">longitud: 144,9705818</text><text x="690" y="2360" font-size="8" style="fill:black">altitud: 1,3964248</text><rect x="460" y="2420" width="200" height="40" style="fill:white;stroke:black;stroke-width:1" /><text x="470" y="2430" font-size="10" style="fill:blue">punto</text><path d="M440 40 C460 40 440 2440 460 2440" style="fill:transparent;stroke:black" /><text x="470" y="2440" font-size="8" style="fill:black">numero: 2</text><rect x="680" y="2420" width="200" height="40" style="fill:white;stroke:black;stroke-width:1" /><text x="690" y="2430" font-size="10" style="fill:blue">distancia</text><path d="M660 2440 C680 2440 660 2440 680 2440" style="fill:transparent;stroke:black" /><text x="690" y="2440" font-size="8" style="fill:black">metros: 274,27</text><rect x="680" y="2470" width="200" height="40" style="fill:white;stroke:black;stroke-width:1" /><text x="690" y="2480" font-size="10" style="fill:blue">coordenadas</text><path d="M660 2440 C680 2440 660 2490 680 2490" style="fill:transparent;stroke:black" /><text x="690" y="2490" font-size="8" style="fill:black">latitud: -37,8469014</text><text x="690" y="2500" font-size="8" style="fill:black">longitud: 144,9715911</text><text x="690" y="2510" font-size="8" style="fill:black">altitud: 1,0479151</text><rect x="460" y="2570" width="200" height="40" style="fill:white;stroke:black;stroke-width:1" /><text x="470" y="2580" font-size="10" style="fill:blue">punto</text><path d="M440 40 C460 40 440 2590 460 2590" style="fill:transparent;stroke:black" /><text x="470" y="2590" font-size="8" style="fill:black">numero: 3</text><rect x="680" y="2570" width="200" height="40" style="fill:white;stroke:black;stroke-width:1" /><text x="690" y="2580" font-size="10" style="fill:blue">distancia</text><path d="M660 2590 C680 2590 660 2590 680 2590" style="fill:transparent;stroke:black" /><text x="690" y="2590" font-size="8" style="fill:black">metros: 209,76</text><rect x="680" y="2620" width="200" height="40" style="fill:white;stroke:black;stroke-width:1" /><text x="690" y="2630" font-size="10" style="fill:blue">coordenadas</text><path d="M660 2590 C680 2590 660 2640 680 2640" style="fill:transparent;stroke:black" /><text x="690" y="2640" font-size="8" style="fill:black">latitud: -37,8480928</text><text x="690" y="2650" font-size="8" style="fill:black">longitud: 144,9734176</text><text x="690" y="2660" font-size="8" style="fill:black">altitud: 5,1056796</text><rect x="460" y="2720" width="200" height="40" style="fill:white;stroke:black;stroke-width:1" /><text x="470" y="2730" font-size="10" style="fill:blue">punto</text><path d="M440 40 C460 40 440 2740 460 2740" style="fill:transparent;stroke:black" /><text x="470" y="2740" font-size="8" style="fill:black">numero: 3</text><rect x="680" y="2720" width="200" height="40" style="fill:white;stroke:black;stroke-width:1" /><text x="690" y="2730" font-size="10" style="fill:blue">distancia</text><path d="M660 2740 C680 2740 660 2740 680 2740" style="fill:transparent;stroke:black" /><text x="690" y="2740" font-size="8" style="fill:black">metros: 120,67</text><rect x="680" y="2770" width="200" height="40" style="fill:white;stroke:black;stroke-width:1" /><text x="690" y="2780" font-size="10" style="fill:blue">coordenadas</text><path d="M660 2740 C680 2740 660 2790 680 2790" style="fill:transparent;stroke:black" /><text x="690" y="2790" font-size="8" style="fill:black">latitud: -37,8481040</text><text x="690" y="2800" font-size="8" style="fill:black">longitud: 144,9747817</text><text x="690" y="2810" font-size="8" style="fill:black">altitud: 5,1938677</text><rect x="460" y="2870" width="200" height="40" style="fill:white;stroke:black;stroke-width:1" /><text x="470" y="2880" font-size="10" style="fill:blue">punto</text><path d="M440 40 C460 40 440 2890 460 2890" style="fill:transparent;stroke:black" /><text x="470" y="2890" font-size="8" style="fill:black">numero: 3</text><rect x="680" y="2870" width="200" height="40" style="fill:white;stroke:black;stroke-width:1" /><text x="690" y="2880" font-size="10" style="fill:blue">distancia</text><path d="M660 2890 C680 2890 660 2890 680 2890" style="fill:transparent;stroke:black" /><text x="690" y="2890" font-size="8" style="fill:black">metros: 294,34</text><rect x="680" y="2920" width="200" height="40" style="fill:white;stroke:black;stroke-width:1" /><text x="690" y="2930" font-size="10" style="fill:blue">coordenadas</text><path d="M660 2890 C680 2890 660 2940 680 2940" style="fill:transparent;stroke:black" /><text x="690" y="2940" font-size="8" style="fill:black">latitud: -37,8498499</text><text x="690" y="2950" font-size="8" style="fill:black">longitud: 144,9772939</text><text x="690" y="2960" font-size="8" style="fill:black">altitud: 5,7381754</text><rect x="460" y="3020" width="200" height="40" style="fill:white;stroke:black;stroke-width:1" /><text x="470" y="3030" font-size="10" style="fill:blue">punto</text><path d="M440 40 C460 40 440 3040 460 3040" style="fill:transparent;stroke:black" /><text x="470" y="3040" font-size="8" style="fill:black">numero: 3</text><rect x="680" y="3020" width="200" height="40" style="fill:white;stroke:black;stroke-width:1" /><text x="690" y="3030" font-size="10" style="fill:blue">distancia</text><path d="M660 3040 C680 3040 660 3040 680 3040" style="fill:transparent;stroke:black" /><text x="690" y="3040" font-size="8" style="fill:black">metros: 410,96</text><rect x="680" y="3070" width="200" height="40" style="fill:white;stroke:black;stroke-width:1" /><text x="690" y="3080" font-size="10" style="fill:blue">coordenadas</text><path d="M660 3040 C680 3040 660 3090 680 3090" style="fill:transparent;stroke:black" /><text x="690" y="3090" font-size="8" style="fill:black">latitud: -37,8533880</text><text x="690" y="3100" font-size="8" style="fill:black">longitud: 144,9786139</text><text x="690" y="3110" font-size="8" style="fill:black">altitud: 6,0217242</text><rect x="460" y="3170" width="200" height="40" style="fill:white;stroke:black;stroke-width:1" /><text x="470" y="3180" font-size="10" style="fill:blue">punto</text><path d="M440 40 C460 40 440 3190 460 3190" style="fill:transparent;stroke:black" /><text x="470" y="3190" font-size="8" style="fill:black">numero: 3</text><rect x="680" y="3170" width="200" height="40" style="fill:white;stroke:black;stroke-width:1" /><text x="690" y="3180" font-size="10" style="fill:blue">distancia</text><path d="M660 3190 C680 3190 660 3190 680 3190" style="fill:transparent;stroke:black" /><text x="690" y="3190" font-size="8" style="fill:black">metros: 255,43</text><rect x="680" y="3220" width="200" height="40" style="fill:white;stroke:black;stroke-width:1" /><text x="690" y="3230" font-size="10" style="fill:blue">coordenadas</text><path d="M660 3190 C680 3190 660 3240 680 3240" style="fill:transparent;stroke:black" /><text x="690" y="3240" font-size="8" style="fill:black">latitud: -37,8539085</text><text x="690" y="3250" font-size="8" style="fill:black">longitud: 144,9757788</text><text x="690" y="3260" font-size="8" style="fill:black">altitud: 4,7670262</text><rect x="460" y="3320" width="200" height="40" style="fill:white;stroke:black;stroke-width:1" /><text x="470" y="3330" font-size="10" style="fill:blue">punto</text><path d="M440 40 C460 40 440 3340 460 3340" style="fill:transparent;stroke:black" /><text x="470" y="3340" font-size="8" style="fill:black">numero: 3</text><rect x="680" y="3320" width="200" height="40" style="fill:white;stroke:black;stroke-width:1" /><text x="690" y="3330" font-size="10" style="fill:blue">distancia</text><path d="M660 3340 C680 3340 660 3340 680 3340" style="fill:transparent;stroke:black" /><text x="690" y="3340" font-size="8" style="fill:black">metros: 245,39</text><rect x="680" y="3370" width="200" height="40" style="fill:white;stroke:black;stroke-width:1" /><text x="690" y="3380" font-size="10" style="fill:blue">coordenadas</text><path d="M660 3340 C680 3340 660 3390 680 3390" style="fill:transparent;stroke:black" /><text x="690" y="3390" font-size="8" style="fill:black">latitud: -37,8520983</text><text x="690" y="3400" font-size="8" style="fill:black">longitud: 144,9741073</text><text x="690" y="3410" font-size="8" style="fill:black">altitud: 4,7375816</text><rect x="460" y="3470" width="200" height="40" style="fill:white;stroke:black;stroke-width:1" /><text x="470" y="3480" font-size="10" style="fill:blue">punto</text><path d="M440 40 C460 40 440 3490 460 3490" style="fill:transparent;stroke:black" /><text x="470" y="3490" font-size="8" style="fill:black">numero: 3</text><rect x="680" y="3470" width="200" height="40" style="fill:white;stroke:black;stroke-width:1" /><text x="690" y="3480" font-size="10" style="fill:blue">distancia</text><path d="M660 3490 C680 3490 660 3490 680 3490" style="fill:transparent;stroke:black" /><text x="690" y="3490" font-size="8" style="fill:black">metros: 145,76</text><rect x="680" y="3520" width="200" height="40" style="fill:white;stroke:black;stroke-width:1" /><text x="690" y="3530" font-size="10" style="fill:blue">coordenadas</text><path d="M660 3490 C680 3490 660 3540 680 3540" style="fill:transparent;stroke:black" /><text x="690" y="3540" font-size="8" style="fill:black">latitud: -37,8528808</text><text x="690" y="3550" font-size="8" style="fill:black">longitud: 144,9727597</text><text x="690" y="3560" font-size="8" style="fill:black">altitud: 4,4096870</text><rect x="460" y="3620" width="200" height="40" style="fill:white;stroke:black;stroke-width:1" /><text x="470" y="3630" font-size="10" style="fill:blue">punto</text><path d="M440 40 C460 40 440 3640 460 3640" style="fill:transparent;stroke:black" /><text x="470" y="3640" font-size="8" style="fill:black">numero: 3</text><rect x="680" y="3620" width="200" height="40" style="fill:white;stroke:black;stroke-width:1" /><text x="690" y="3630" font-size="10" style="fill:blue">distancia</text><path d="M660 3640 C680 3640 660 3640 680 3640" style="fill:transparent;stroke:black" /><text x="690" y="3640" font-size="8" style="fill:black">metros: 456,81</text><rect x="680" y="3670" width="200" height="40" style="fill:white;stroke:black;stroke-width:1" /><text x="690" y="3680" font-size="10" style="fill:blue">coordenadas</text><path d="M660 3640 C680 3640 660 3690 680 3690" style="fill:transparent;stroke:black" /><text x="690" y="3690" font-size="8" style="fill:black">latitud: -37,8500634</text><text x="690" y="3700" font-size="8" style="fill:black">longitud: 144,9689850</text><text x="690" y="3710" font-size="8" style="fill:black">altitud: 4,8980248</text></svg>